HIERARCHY
ROOT Pelvis
{
	OFFSET 0.000000 0.000000 0.000000
	CHANNELS 6 Xposition Yposition Zposition Xrotation Yrotation Zrotation
	JOINT LeftUpLeg_virtual
	{
		OFFSET 0.000000 0.000000 0.000000
		CHANNELS 3 Xrotation Yrotation Zrotation
		JOINT LeftUpLeg
		{
			OFFSET 18.735201 -5.666702 -4.541200
			CHANNELS 3 Xrotation Yrotation Zrotation
			JOINT LeftLeg
			{
				OFFSET -0.021200 -31.938179 0.493100
				CHANNELS 3 Xrotation Yrotation Zrotation
				JOINT LeftFoot
				{
					OFFSET 0.021200 -31.938179 -4.336299
					CHANNELS 3 Xrotation Yrotation Zrotation
					JOINT LeftToeBase
					{
						OFFSET 0.943001 -26.722000 15.023500
						CHANNELS 3 Xrotation Yrotation Zrotation
						End Site
						{
							OFFSET 0 0 0
						}
					}
				}
			}
		}
	}
	JOINT RightUpLeg_virtual
	{
		OFFSET 0.000000 0.000000 0.000000
		CHANNELS 3 Xrotation Yrotation Zrotation
		JOINT RightUpLeg
		{
			OFFSET -18.735201 -5.666702 -4.541200
			CHANNELS 3 Xrotation Yrotation Zrotation
			JOINT RightLeg
			{
				OFFSET 0.018946 -31.938133 0.493100
				CHANNELS 3 Xrotation Yrotation Zrotation
				JOINT RightFoot
				{
					OFFSET -0.018946 -31.938126 -4.336299
					CHANNELS 3 Xrotation Yrotation Zrotation
					JOINT RightToeBase
					{
						OFFSET -0.943001 -26.722004 15.023500
						CHANNELS 3 Xrotation Yrotation Zrotation
						End Site
						{
							OFFSET 0 0 0
						}
					}
				}
			}
		}
	}
	JOINT Hips_virtual
	{
		OFFSET 0.000000 0.000000 0.000000
		CHANNELS 3 Xrotation Yrotation Zrotation
		JOINT Hips
		{
			OFFSET -0.000000 -0.000000 -0.000000
			CHANNELS 3 Xrotation Yrotation Zrotation
			JOINT Spine
			{
				OFFSET 0.000000 10.199997 -0.299500
				CHANNELS 3 Xrotation Yrotation Zrotation
				JOINT Spine1
				{
					OFFSET 0.000000 11.900002 -1.516600
					CHANNELS 3 Xrotation Yrotation Zrotation
					JOINT Spine2
					{
						OFFSET 0.000000 13.600006 -2.842500
						CHANNELS 3 Xrotation Yrotation Zrotation
						JOINT Neck_virtual
						{
							OFFSET 0.000000 0.000000 0.000000
							CHANNELS 3 Xrotation Yrotation Zrotation
							JOINT Neck
							{
								OFFSET 0.000000 9.624100 -2.890100
								CHANNELS 3 Xrotation Yrotation Zrotation
								JOINT Head
								{
									OFFSET 0.000000 14.068802 -1.351900
									CHANNELS 3 Xrotation Yrotation Zrotation
									End Site
									{
										OFFSET 0 0 0
									}
								}
							}
						}
						JOINT LeftShoulder_virtual
						{
							OFFSET 0.000000 0.000000 0.000000
							CHANNELS 3 Xrotation Yrotation Zrotation
							JOINT LeftShoulder
							{
								OFFSET 15.263000 10.923401 -0.547700
								CHANNELS 3 Xrotation Yrotation Zrotation
								JOINT LeftArm
								{
									OFFSET 25.438599 -2.830597 -13.032500
									CHANNELS 3 Xrotation Yrotation Zrotation
									JOINT LeftForeArm
									{
										OFFSET 29.960503 0.000000 0.000000
										CHANNELS 3 Xrotation Yrotation Zrotation
										JOINT LeftHand
										{
											OFFSET 27.849251 0.000000 0.000000
											CHANNELS 3 Xrotation Yrotation Zrotation
											End Site
											{
												OFFSET 0 0 0
											}
										}
									}
								}
							}
						}
						JOINT RightShoulder_virtual
						{
							OFFSET 0.000000 0.000000 0.000000
							CHANNELS 3 Xrotation Yrotation Zrotation
							JOINT RightShoulder
							{
								OFFSET -15.263000 10.923401 -0.547700
								CHANNELS 3 Xrotation Yrotation Zrotation
								JOINT RightArm
								{
									OFFSET -25.438599 -2.830597 -13.032500
									CHANNELS 3 Xrotation Yrotation Zrotation
									JOINT RightForeArm
									{
										OFFSET -29.960503 0.000000 0.000000
										CHANNELS 3 Xrotation Yrotation Zrotation
										JOINT RightHand
										{
											OFFSET -27.849251 0.000000 0.000000
											CHANNELS 3 Xrotation Yrotation Zrotation
											End Site
											{
												OFFSET 0 0 0
											}
										}
									}
								}
							}
						}
					}
				}
			}
		}
	}
}
MOTION
Frames: 4
Frame Time: 0.03333333
-0.200819 93.919464 4.293846 0.000000 0.000000 0.000000 -0.316973 -0.854462 0.805481 -11.363696 12.475366 10.829041 17.972185 -10.257437 0.390802 -7.643035 0.695833 -8.028105 0.000000 0.000000 0.000000 -0.316973 -0.854462 0.805481 -10.493711 -8.536589 -15.708786 17.626840 7.136128 2.652983 -8.092853 -1.145556 9.477209 0.000000 0.000000 0.000000 -0.316973 -0.854462 0.805481 0.000000 0.000000 0.000000 0.602047 0.534191 0.195764 0.948881 0.543752 -0.036077 0.000000 0.000000 0.000000 0.949056 0.535715 -0.036774 0.705539 -0.506616 -0.271102 0.000000 0.000000 0.000000 0.949056 0.535715 -0.036774 0.691656 -2.499305 -11.191563 5.273947 -17.247121 -62.895278 0.000002 -21.850197 0.000015 0.000000 0.000000 0.000000 0.949056 0.535715 -0.036774 0.450398 7.851257 13.847201 5.786521 9.805980 61.054952 -0.000002 23.253208 0.000006 0.000000 0.000000 0.000000 
-0.206485 93.917740 4.357849 0.000000 0.000000 0.000000 -0.316975 -0.891370 0.805244 -11.285645 12.494448 10.833939 17.949959 -10.260019 0.389695 -7.695870 0.730656 -8.037055 0.000000 0.000000 0.000000 -0.316975 -0.891370 0.805244 -10.442015 -8.523811 -15.705026 17.604797 7.131415 2.639393 -8.121394 -1.147753 9.496629 0.000000 0.000000 0.000000 -0.316975 -0.891370 0.805244 0.000000 0.000000 0.000000 0.602044 0.538010 0.174495 0.948881 0.543752 -0.047615 0.000000 0.000000 0.000000 0.949056 0.535716 -0.042374 0.713760 -0.482731 -0.253509 0.000000 0.000000 0.000000 0.949056 0.535716 -0.042374 0.692010 -2.516156 -11.214496 5.525728 -17.246013 -62.798849 0.000001 -22.198154 -0.000010 0.000000 0.000000 0.000000 0.949056 0.535716 -0.042374 0.449468 7.849635 13.857038 6.043051 9.889812 61.153778 0.000000 23.361521 -0.000018 0.000000 0.000000 0.000000 
-0.211102 93.901039 4.420444 0.000000 0.000000 0.000000 -0.311848 -0.905862 0.790173 -11.294623 12.482925 10.864326 18.079449 -10.266010 0.400783 -7.822662 0.751264 -8.040745 0.000000 0.000000 0.000000 -0.311848 -0.905862 0.790173 -10.412096 -8.467103 -15.659331 17.680284 7.067808 2.594825 -8.208586 -1.166142 9.524707 0.000000 0.000000 0.000000 -0.311848 -0.905862 0.790173 0.000000 0.000000 0.000000 0.611216 0.551970 0.165054 0.963187 0.543752 -0.069054 0.000000 0.000000 0.000000 0.963427 0.544780 -0.063332 0.727900 -0.450444 -0.257841 0.000000 0.000000 0.000000 0.963427 0.544780 -0.063332 0.687645 -2.578771 -11.358226 5.493326 -17.548540 -62.451172 -0.000005 -22.647000 -0.000006 0.000000 0.000000 0.000000 0.963427 0.544780 -0.063332 0.440788 7.832455 14.103889 6.457134 10.074927 60.890460 0.000002 23.759032 -0.000008 0.000000 0.000000 0.000000 
-0.206399 93.835915 4.408585 0.000000 0.000000 0.000000 -0.179815 -0.875452 0.724037 -11.746487 12.287273 10.921400 18.684536 -10.263620 0.515185 -8.093889 0.858622 -8.052002 0.000000 0.000000 0.000000 -0.179815 -0.875452 0.724037 -10.651633 -8.319812 -15.547070 17.965947 6.949736 2.521064 -8.336380 -1.179608 9.559567 0.000000 0.000000 0.000000 -0.179815 -0.875452 0.724037 0.000000 0.000000 0.000000 0.632488 0.584235 0.193760 0.987531 0.553731 -0.090297 0.000000 0.000000 0.000000 0.987945 0.554976 -0.083196 0.769159 -0.412110 -0.284966 0.000000 0.000000 0.000000 0.987945 0.554976 -0.083196 0.671088 -2.450089 -11.354334 3.831879 -18.217931 -61.992552 -0.000013 -22.598403 -0.000016 0.000000 0.000000 0.000000 0.987945 0.554976 -0.083196 0.426407 7.793745 14.551527 6.731388 10.282454 59.960619 0.000004 25.166860 -0.000003 0.000000 0.000000 0.000000 
